<?xml version="1.0" standalone="no"?>
<!DOCTYPE svg PUBLIC "-//W3C//DTD SVG 20010904//EN"
 "http://www.w3.org/TR/2001/REC-SVG-20010904/DTD/svg10.dtd">
<svg version="1.0" xmlns="http://www.w3.org/2000/svg"
 width="257.000000pt" height="258.000000pt" viewBox="0 0 257.000000 258.000000"
 preserveAspectRatio="xMidYMid meet">

<g transform="translate(0.000000,258.000000) scale(0.100000,-0.100000)"
fill="#000000" stroke="none">
<path d="M1420 2556 c-304 -65 -568 -273 -695 -550 -143 -308 -108 -685 89
-960 51 -71 170 -188 239 -235 84 -57 203 -111 304 -138 134 -35 334 -37 467
-4 370 90 657 392 720 757 57 321 -38 628 -264 855 -128 130 -248 201 -430
256 -105 32 -324 41 -430 19z m139 -258 c16 -35 40 -78 55 -97 32 -43 33 -75
4 -95 -34 -24 -54 -19 -88 22 -34 41 -100 169 -100 195 0 16 13 21 70 30 14 3
26 5 27 6 2 0 16 -27 32 -61z m226 37 c33 -8 103 -36 155 -62 80 -39 109 -60
185 -137 69 -69 101 -110 132 -171 75 -146 104 -289 88 -431 l-8 -69 -12 90
c-6 50 -17 100 -23 112 -17 31 -52 53 -85 53 l-29 0 26 31 c14 17 26 43 26 58
0 57 -112 186 -202 232 -37 19 -142 24 -131 7 2 -4 -5 -18 -16 -30 -38 -40
-16 -149 32 -164 12 -4 51 -38 88 -75 60 -61 72 -69 105 -69 l38 0 -29 -30
c-31 -32 -31 -31 -20 -192 9 -118 26 -161 71 -178 35 -14 88 -12 102 2 10 10
10 6 1 -20 -6 -17 -15 -29 -20 -26 -5 3 -8 2 -7 -3 4 -17 -14 -53 -24 -47 -6
4 -8 2 -5 -3 9 -14 -44 -85 -107 -146 -255 -244 -651 -276 -944 -75 -43 30
-43 30 -25 51 18 22 18 22 -2 5 -15 -12 -25 -14 -38 -7 -9 6 -14 15 -11 21 4
7 2 8 -4 4 -15 -9 -113 112 -155 193 -63 120 -82 199 -82 346 0 93 5 148 17
193 22 78 91 218 106 215 6 -2 9 3 6 10 -5 14 59 93 121 149 54 48 142 103
205 128 62 24 70 25 70 3 0 -31 78 -178 118 -220 33 -37 45 -43 78 -43 52 0
99 30 113 73 14 40 6 67 -40 133 -16 24 -37 61 -45 81 l-16 36 69 -6 c37 -4
95 -14 128 -22z m290 -386 c99 -82 133 -157 81 -180 -36 -17 -68 -4 -97 40
-15 21 -50 53 -78 71 -47 31 -51 37 -51 72 0 31 4 40 22 47 31 11 66 -3 123
-50z m163 -296 c35 -30 57 -239 29 -277 -16 -21 -76 -19 -88 4 -10 21 -30 235
-24 253 5 13 39 34 56 36 4 1 16 -7 27 -16z"/>
<path d="M1740 2126 c0 -2 8 -10 18 -17 15 -13 16 -12 3 4 -13 16 -21 21 -21
13z"/>
<path d="M1808 2023 c7 -3 16 -2 19 1 4 3 -2 6 -13 5 -11 0 -14 -3 -6 -6z"/>
<path d="M1000 2006 c0 -2 8 -10 18 -17 15 -13 16 -12 3 4 -13 16 -21 21 -21
13z"/>
<path d="M1135 1974 c-22 -9 -45 -16 -52 -16 -7 -1 -10 -5 -7 -10 3 -4 -2 -11
-10 -14 -9 -3 -14 -10 -11 -14 3 -5 1 -11 -4 -14 -13 -8 4 -73 24 -96 9 -10
40 -28 68 -41 42 -19 70 -23 147 -23 139 0 180 26 180 114 0 35 -6 48 -35 77
-35 35 -36 36 -98 29 -44 -4 -78 -2 -113 9 -27 8 -49 15 -49 14 0 0 -18 -7
-40 -15z m164 -60 c91 -3 121 -18 121 -60 0 -38 -36 -54 -120 -54 -91 0 -145
14 -177 46 -20 20 -22 27 -13 44 14 27 48 41 80 34 14 -4 63 -8 109 -10z"/>
<path d="M1018 1933 c7 -3 16 -2 19 1 4 3 -2 6 -13 5 -11 0 -14 -3 -6 -6z"/>
<path d="M1832 1590 c-42 -42 -48 -78 -23 -145 12 -31 21 -77 21 -103 0 -29 7
-56 18 -70 17 -23 122 -69 122 -54 0 5 11 14 25 20 13 6 32 26 41 44 33 64 -5
258 -62 315 -36 36 -103 32 -142 -7z m127 -74 c18 -35 26 -71 29 -127 5 -87
-4 -109 -44 -109 -40 0 -64 33 -64 90 0 28 -7 67 -15 87 -20 48 -19 69 6 94
32 32 61 21 88 -35z"/>
<path d="M1277 1589 c-22 -13 -72 -112 -103 -203 -28 -81 -29 -92 -9 -130 8
-15 13 -32 10 -36 -3 -4 3 -7 13 -6 9 0 16 -4 15 -9 -2 -14 94 -4 124 13 12 6
29 33 39 59 9 27 32 82 50 124 19 42 34 84 34 93 0 26 -27 73 -52 90 -25 18
-94 21 -121 5z m95 -56 c24 -21 23 -54 -4 -106 -12 -23 -29 -67 -38 -97 -21
-65 -55 -90 -97 -71 -23 10 -25 16 -21 54 6 49 62 194 85 219 20 23 51 23 75
1z"/>
<path d="M1639 1290 c-22 -13 -116 -150 -140 -205 -17 -38 -18 -52 -10 -78 14
-41 60 -70 111 -69 51 1 76 15 96 55 10 18 39 63 66 101 61 87 64 122 14 172
-28 28 -41 34 -77 34 -24 0 -51 -5 -60 -10z m104 -72 l19 -26 -67 -101 c-70
-106 -87 -117 -136 -91 -37 20 -16 76 73 198 32 44 44 53 65 50 14 -2 35 -15
46 -30z"/>
<path d="M1891 1134 c0 -11 3 -14 6 -6 3 7 2 16 -1 19 -3 4 -6 -2 -5 -13z"/>
<path d="M638 922 c-9 -4 -150 -139 -312 -300 -316 -313 -317 -315 -302 -398
5 -25 27 -57 79 -110 39 -42 83 -82 99 -90 35 -18 101 -18 136 0 29 16 559
545 586 586 20 30 21 102 2 138 -17 32 -141 155 -173 171 -24 12 -88 14 -115
3z"/>
</g>
</svg>
